<?xml version="1.0" encoding="utf-8"?>
<!-- Generator: Adobe Illustrator 18.0.0, SVG Export Plug-In . SVG Version: 6.00 Build 0)  -->
<!DOCTYPE svg PUBLIC "-//W3C//DTD SVG 1.1//EN" "http://www.w3.org/Graphics/SVG/1.1/DTD/svg11.dtd">
<svg version="1.1" id="Layer_1" xmlns="http://www.w3.org/2000/svg" xmlns:xlink="http://www.w3.org/1999/xlink" x="0px" y="0px"
	 width="512px" height="256px" viewBox="-74 307 512 256" enable-background="new -74 307 512 256" xml:space="preserve">
<g>
	<path id="XMLID_28_" fill="#B68B70" d="M26,485v-75.1h21.5c7.8,0,14.7,4,17.1,11l24.3,64H117l-28.1-73.7
		c-1.2-5.6-10-26.3-34.5-26.3H0.9v100H26V485z"/>
	<path id="XMLID_27_" fill="#B68B70" d="M338.1,385v75.1h-21.5c-8.2,0-14.5-5-17.1-11l-24.3-64h-28.1l28.1,73.7
		c3,9.8,12,26.3,34.5,26.3h53.4v-100h-25V385z"/>
	<polygon id="XMLID_26_" fill="#B68B70" points="168.5,485 142.4,485 132.9,459.9 158.8,459.9 	"/>
	<path id="XMLID_25_" fill="#B68B70" d="M232.9,463.5c0,0-26.1-69-26.5-69.8c-3.4-5.4-8.6-9-15.9-8.8h-21.9c0,0,8.6,6.2,14,21.5
		c0,0,24.9,65.8,25.5,67.2c2.6,7,8.8,11.6,14.7,11.6h24.3C246.9,485,238.3,478.6,232.9,463.5"/>
</g>
</svg>
